<?xml version="1.0" encoding="utf-8"?>
<!-- Generator: Adobe Illustrator 14.0.0, SVG Export Plug-In . SVG Version: 6.00 Build 43363)  -->
<!DOCTYPE svg PUBLIC "-//W3C//DTD SVG 1.1//EN" "http://www.w3.org/Graphics/SVG/1.1/DTD/svg11.dtd">
<svg version="1.1" id="Layer_1" xmlns="http://www.w3.org/2000/svg" xmlns:xlink="http://www.w3.org/1999/xlink" x="0px" y="0px"
	 width="212px" height="63px" viewBox="0 0 212 63" enable-background="new 0 0 212 63" xml:space="preserve">
<g>
	<rect x="17.681" y="8.672" fill-rule="evenodd" clip-rule="evenodd" fill="#7F5321" width="4.182" height="36.371"/>
	<rect x="121.813" y="26.18" fill-rule="evenodd" clip-rule="evenodd" fill="#7F5321" width="4.185" height="27.498"/>
	<rect x="191.234" y="8.672" fill-rule="evenodd" clip-rule="evenodd" fill="#7F5321" width="4.182" height="36.371"/>
	<rect x="87.104" y="26.18" fill-rule="evenodd" clip-rule="evenodd" fill="#7F5321" width="4.183" height="27.498"/>
	<rect x="52.394" y="23.01" fill-rule="evenodd" clip-rule="evenodd" fill="#7F5321" width="4.183" height="27.499"/>
	<rect x="156.524" y="23.01" fill-rule="evenodd" clip-rule="evenodd" fill="#7F5321" width="4.184" height="27.499"/>
	<path fill-rule="evenodd" clip-rule="evenodd" fill="#7F5321" d="M1.586,5.746C0.134,4.987-0.431,3.192,0.326,1.74
		C1.085,0.285,2.881-0.28,4.333,0.479C4.597,0.615,96,49.787,207.658,1.957c1.51-0.642,3.258,0.06,3.901,1.571
		c0.642,1.51-0.062,3.257-1.573,3.901C95.721,56.375,1.856,5.888,1.586,5.746z"/>
	<path fill-rule="evenodd" clip-rule="evenodd" fill="#7F5321" d="M19.777,49.973c5.06,0,9.185-4.128,9.185-9.185
		c0-5.058-4.125-9.183-9.185-9.183c-5.059,0-9.185,4.125-9.185,9.183C10.592,45.845,14.718,49.973,19.777,49.973z"/>
	<path fill-rule="evenodd" clip-rule="evenodd" fill="#7F5321" d="M54.487,58.129c5.058,0,9.183-4.125,9.183-9.185
		s-4.125-9.185-9.183-9.185c-5.057,0-9.184,4.125-9.184,9.185S49.43,58.129,54.487,58.129z"/>
	<path fill-rule="evenodd" clip-rule="evenodd" fill="#7F5321" d="M89.198,62.858c5.057,0,9.182-4.126,9.182-9.186
		c0-5.059-4.125-9.185-9.182-9.185c-5.058,0-9.186,4.126-9.186,9.185C80.013,58.732,84.141,62.858,89.198,62.858z"/>
	<path fill-rule="evenodd" clip-rule="evenodd" fill="#7F5321" d="M123.908,62.858c5.057,0,9.183-4.126,9.183-9.186
		c0-5.059-4.126-9.185-9.183-9.185s-9.186,4.126-9.186,9.185C114.723,58.732,118.852,62.858,123.908,62.858z"/>
	<path fill-rule="evenodd" clip-rule="evenodd" fill="#7F5321" d="M158.621,58.129c5.059,0,9.184-4.125,9.184-9.185
		s-4.125-9.185-9.184-9.185c-5.061,0-9.186,4.125-9.186,9.185S153.561,58.129,158.621,58.129z"/>
	<path fill-rule="evenodd" clip-rule="evenodd" fill="#7F5321" d="M193.331,49.973c5.059,0,9.185-4.128,9.185-9.185
		c0-5.058-4.126-9.183-9.185-9.183c-5.06,0-9.186,4.125-9.186,9.183C184.146,45.845,188.271,49.973,193.331,49.973z"/>
	<path fill-rule="evenodd" clip-rule="evenodd" fill="#DC9C42" d="M54.487,55.305c3.502,0,6.36-2.855,6.36-6.36
		c0-3.504-2.858-6.359-6.36-6.359c-3.504,0-6.359,2.855-6.359,6.359C48.128,52.449,50.983,55.305,54.487,55.305z"/>
	<path fill-rule="evenodd" clip-rule="evenodd" fill="#DC9C42" d="M19.777,47.147c3.501,0,6.36-2.857,6.36-6.359
		s-2.859-6.358-6.36-6.358c-3.504,0-6.36,2.856-6.36,6.358S16.273,47.147,19.777,47.147z"/>
	<path fill-rule="evenodd" clip-rule="evenodd" fill="#DC9C42" d="M89.198,60.033c3.501,0,6.357-2.855,6.357-6.36
		c0-3.504-2.855-6.359-6.357-6.359c-3.502,0-6.361,2.855-6.361,6.359C82.837,57.178,85.696,60.033,89.198,60.033z"/>
	<path fill-rule="evenodd" clip-rule="evenodd" fill="#DC9C42" d="M123.91,60.033c3.502,0,6.36-2.855,6.36-6.36
		c0-3.504-2.858-6.359-6.36-6.359c-3.504,0-6.359,2.855-6.359,6.359C117.551,57.178,120.406,60.033,123.91,60.033z"/>
	<path fill-rule="evenodd" clip-rule="evenodd" fill="#DC9C42" d="M158.621,55.305c3.502,0,6.359-2.855,6.359-6.36
		c0-3.504-2.857-6.359-6.359-6.359c-3.505,0-6.36,2.855-6.36,6.359C152.261,52.449,155.116,55.305,158.621,55.305z"/>
	<path fill-rule="evenodd" clip-rule="evenodd" fill="#DC9C42" d="M193.331,47.147c3.502,0,6.359-2.857,6.359-6.359
		s-2.857-6.358-6.359-6.358c-3.505,0-6.36,2.856-6.36,6.358S189.826,47.147,193.331,47.147z"/>
	<path fill-rule="evenodd" clip-rule="evenodd" fill="#7F5321" d="M1.586,35.564c-1.452-0.76-2.017-2.557-1.26-4.008
		c0.759-1.453,2.555-2.019,4.007-1.259C4.597,30.432,96,79.605,207.658,31.773c1.51-0.643,3.258,0.062,3.901,1.572
		c0.642,1.511-0.062,3.259-1.573,3.9C95.721,86.193,1.856,35.706,1.586,35.564z"/>
</g>
</svg>
