<?xml version="1.0" encoding="utf-8"?>
<!-- Generator: Adobe Illustrator 14.0.0, SVG Export Plug-In . SVG Version: 6.00 Build 43363)  -->
<!DOCTYPE svg PUBLIC "-//W3C//DTD SVG 1.1//EN" "http://www.w3.org/Graphics/SVG/1.1/DTD/svg11.dtd">
<svg version="1.1" id="Layer_1" xmlns="http://www.w3.org/2000/svg" xmlns:xlink="http://www.w3.org/1999/xlink" x="0px" y="0px"
	 width="163px" height="200px" viewBox="0 0 163 200" enable-background="new 0 0 163 200" xml:space="preserve">
<path fill-rule="evenodd" clip-rule="evenodd" fill="#688E3D" d="M148.71,151.289L148.71,151.289
	c7.964,0,14.479-6.517,14.479-14.479V92.4h-28.955v44.409C134.233,144.768,140.747,151.289,148.71,151.289z"/>
<path fill-rule="evenodd" clip-rule="evenodd" fill="#875F25" d="M21.071,105.031h134.655v47.344
	c0,26.035-21.3,47.334-47.337,47.334H68.408c-26.037,0-47.337-21.299-47.337-47.334V105.031z"/>
<path fill-rule="evenodd" clip-rule="evenodd" fill="#B9802B" d="M21.071,105.031h104.674v47.34
	c0,26.036-21.302,47.338-47.339,47.338h-9.998c-26.035,0-47.337-21.302-47.337-47.338V105.031z"/>
<path fill-rule="evenodd" clip-rule="evenodd" fill="#749F40" d="M32.363,67.157H144.43c10.484,0,19.065,8.563,19.065,19.064v19.085
	H13.299V86.222C13.299,75.721,21.862,67.157,32.363,67.157z"/>
<path fill-rule="evenodd" clip-rule="evenodd" fill="#BECF31" d="M32.363,67.154h83.723c10.488,0,19.072,8.573,19.072,19.067v19.085
	H13.299V86.222C13.299,75.723,21.859,67.154,32.363,67.154z"/>
<rect x="21.071" y="105.307" fill-rule="evenodd" clip-rule="evenodd" fill="#875F25" width="123.87" height="12.608"/>
<path fill-rule="evenodd" clip-rule="evenodd" fill="#749F40" d="M8.036,125.869h44.007c4.117,0,7.486,4.469,7.486,9.946v9.958
	H0.549v-9.958C0.549,130.338,3.912,125.869,8.036,125.869z"/>
<path fill-rule="evenodd" clip-rule="evenodd" fill="#9BC33C" d="M8.036,125.869h29.411c4.116,0,7.489,4.472,7.489,9.946v9.958
	H0.549v-9.958C0.549,130.338,3.912,125.869,8.036,125.869z"/>
<path fill-rule="evenodd" clip-rule="evenodd" fill="#7F5321" d="M0.549,145.773h58.982v25.914c0,9.089-7.433,16.521-16.523,16.521
	H17.073c-9.091,0-16.524-7.433-16.524-16.521V145.773z"/>
<path fill-rule="evenodd" clip-rule="evenodd" fill="#DC9C42" d="M0.549,145.773h44.388v25.914c0,9.087-5.596,16.521-12.435,16.521
	H12.986c-6.841,0-12.438-7.435-12.438-16.521V145.773z"/>
<path fill-rule="evenodd" clip-rule="evenodd" fill="#C6872B" d="M9.859,145.773h35.074v25.914c0,9.087-5.593,16.521-12.434,16.521
	H22.293c-6.838,0-12.434-7.435-12.434-16.521V145.773z"/>
<path fill-rule="evenodd" clip-rule="evenodd" fill="#95A5AF" d="M107.062,67.154h33.137V53.101c0-5.753-4.713-10.461-10.461-10.461
	h-12.215c-5.746,0-10.461,4.715-10.461,10.461V67.154z"/>
<path fill-rule="evenodd" clip-rule="evenodd" fill="#B5C9D5" d="M107.062,67.154h25.886V53.103c0-5.755-4.713-10.463-10.461-10.463
	h-4.964c-5.746,0-10.461,4.715-10.461,10.463V67.154z"/>
<path fill-rule="evenodd" clip-rule="evenodd" fill="#95A5AF" d="M85.854,67.154h36.335v-55.79c0-6.463-5.282-11.746-11.741-11.746
	H97.601c-6.463,0-11.746,5.283-11.746,11.746V67.154z"/>
<path fill-rule="evenodd" clip-rule="evenodd" fill="#B5C9D5" d="M85.854,67.154h23.125v-55.79c0-6.362-5.119-11.581-11.441-11.744
	h-0.241c-6.322,0.161-11.442,5.381-11.442,11.744V67.154z"/>
<g>
	<rect x="38.248" y="39.117" fill-rule="evenodd" clip-rule="evenodd" fill="#B9802B" width="12.584" height="28.037"/>
	<rect x="81.754" y="39.117" fill-rule="evenodd" clip-rule="evenodd" fill="#B9802B" width="12.586" height="28.037"/>
	<rect x="46.803" y="46.197" fill-rule="evenodd" clip-rule="evenodd" fill="#7F5321" width="4.029" height="20.957"/>
	<rect x="90.309" y="46.197" fill-rule="evenodd" clip-rule="evenodd" fill="#7F5321" width="4.029" height="20.957"/>
</g>
<g>
	<rect x="28.604" y="48.18" fill-rule="evenodd" clip-rule="evenodd" fill="#B9802B" width="75.379" height="11.111"/>
	<rect x="28.604" y="55.257" fill-rule="evenodd" clip-rule="evenodd" fill="#7F5321" width="75.379" height="4.034"/>
	<rect x="28.604" y="45.949" fill-rule="evenodd" clip-rule="evenodd" fill="#F2B866" width="75.379" height="2.232"/>
</g>
</svg>
