<?xml version="1.0" encoding="utf-8"?>
<!-- Generator: Adobe Illustrator 14.0.0, SVG Export Plug-In . SVG Version: 6.00 Build 43363)  -->
<!DOCTYPE svg PUBLIC "-//W3C//DTD SVG 1.1//EN" "http://www.w3.org/Graphics/SVG/1.1/DTD/svg11.dtd">
<svg version="1.1" id="Layer_1" xmlns="http://www.w3.org/2000/svg" xmlns:xlink="http://www.w3.org/1999/xlink" x="0px" y="0px"
	 width="200px" height="159px" viewBox="0 0 200 159" enable-background="new 0 0 200 159" xml:space="preserve">
<path fill-rule="evenodd" clip-rule="evenodd" fill="#AA742A" d="M24.113,147.119H90.93c8.369,0,15.218-6.841,15.218-15.217v-15.229
	H8.899v15.229C8.899,140.283,15.731,147.119,24.113,147.119z"/>
<path fill-rule="evenodd" clip-rule="evenodd" fill="#F2B866" d="M24.113,147.119h18.498c8.371,0,15.221-6.841,15.221-15.217
	v-15.229H8.899v15.229C8.899,140.283,15.733,147.119,24.113,147.119z"/>
<path fill-rule="evenodd" clip-rule="evenodd" fill="#749F40" d="M37.703,86.229h89.435c8.364,0,15.215,6.834,15.215,15.215v15.229
	H22.487v-15.229C22.487,93.062,29.323,86.229,37.703,86.229z"/>
<path fill-rule="evenodd" clip-rule="evenodd" fill="#BECF31" d="M15.054,86.226h66.814c8.369,0,15.221,6.841,15.221,15.218v15.229
	h-97.25v-15.229C-0.161,93.064,6.671,86.226,15.054,86.226z"/>
<rect x="8.899" y="116.673" fill-rule="evenodd" clip-rule="evenodd" fill="#7F5321" width="82.686" height="9.109"/>
<path fill-rule="evenodd" clip-rule="evenodd" fill="#AA742A" d="M91.585,35.989h68.669v106.821c0,8.304-6.796,15.1-15.101,15.1
	h-38.471c-8.305,0-15.098-6.793-15.098-15.1V35.989z"/>
<path fill-rule="evenodd" clip-rule="evenodd" fill="#DC9C42" d="M91.585,35.989h43.504v106.821c0,8.304-6.794,15.1-15.099,15.1
	h-13.308c-8.305,0-15.098-6.793-15.098-15.1V35.989z"/>
<path fill-rule="evenodd" clip-rule="evenodd" fill="#B9802B" d="M69.935,35.989h43.403v80.248c0,5.251-4.29,9.545-9.541,9.545
	H79.48c-5.252,0-9.545-4.294-9.545-9.545V35.989z"/>
<path fill-rule="evenodd" clip-rule="evenodd" fill="#F2B866" d="M69.935,35.989h29.814v80.248c0,5.249-4.291,9.545-9.54,9.545
	H79.478c-5.25,0-9.542-4.296-9.542-9.545V35.989z"/>
<path fill-rule="evenodd" clip-rule="evenodd" fill="#7F5321" d="M154.215,35.989h33.147v61.286c0,4.009-3.278,7.287-7.288,7.287
	h-18.572c-4.01,0-7.287-3.278-7.287-7.287V35.989z"/>
<path fill-rule="evenodd" clip-rule="evenodd" fill="#B9802B" d="M154.215,35.989h19.061v61.283c0,4.009-3.277,7.288-7.288,7.288
	h-4.483c-4.012,0-7.289-3.279-7.289-7.288V35.989z"/>
<path fill-rule="evenodd" clip-rule="evenodd" fill="#749F40" d="M75.301-0.189h106.273c9.943,0,18.082,8.121,18.082,18.082v18.097
	H57.222V17.893C57.222,7.932,65.343-0.189,75.301-0.189z"/>
<path fill-rule="evenodd" clip-rule="evenodd" fill="#BECF31" d="M75.303-0.191h79.394c9.944,0,18.086,8.13,18.086,18.081v18.1
	H57.222v-18.1C57.222,7.934,65.34-0.191,75.303-0.191z"/>
</svg>
