<?xml version="1.0" encoding="utf-8"?>
<!-- Generator: Adobe Illustrator 14.0.0, SVG Export Plug-In . SVG Version: 6.00 Build 43363)  -->
<!DOCTYPE svg PUBLIC "-//W3C//DTD SVG 1.1//EN" "http://www.w3.org/Graphics/SVG/1.1/DTD/svg11.dtd">
<svg version="1.1" id="Layer_1" xmlns="http://www.w3.org/2000/svg" xmlns:xlink="http://www.w3.org/1999/xlink" x="0px" y="0px"
	 width="121px" height="256px" viewBox="0 0 121 256" enable-background="new 0 0 121 256" xml:space="preserve">
<path fill-rule="evenodd" clip-rule="evenodd" fill="#43BFEE" d="M58.811,49.612H16.897v87.877c0,4.664-3.833,8.496-8.495,8.496
	H8.398c-4.666,0-8.497-3.828-8.497-8.496V49.612V25.943c0-9.989,8.164-18.15,18.143-18.15h40.767V49.612z"/>
<path fill-rule="evenodd" clip-rule="evenodd" fill="#875F25" d="M95.196,43.877H17.005v187.229c0,13.58,11.12,24.685,24.685,24.685
	h28.824c13.558,0,24.683-11.12,24.683-24.685V43.877z"/>
<path fill-rule="evenodd" clip-rule="evenodd" fill="#B9802B" d="M80.097,43.875H17.005v187.23c0,13.58,11.12,24.685,24.683,24.685
	h13.724c13.561,0,24.686-11.12,24.686-24.685V43.875z"/>
<rect x="17.002" y="45.292" fill-rule="evenodd" clip-rule="evenodd" fill="#875F25" width="96.557" height="21.118"/>
<path fill-rule="evenodd" clip-rule="evenodd" fill="#AA742A" d="M113.562,43.877H71.061v101.767
	c0,7.382,6.046,13.416,13.418,13.416h15.666c7.37,0,13.417-6.043,13.417-13.416V43.877z"/>
<path fill-rule="evenodd" clip-rule="evenodd" fill="#DC9C42" d="M99.973,43.875H71.063v101.769c0,7.379,6.04,13.416,13.415,13.416
	h2.076c7.37,0,13.418-6.046,13.418-13.416V43.875z"/>
<g>
	<path fill-rule="evenodd" clip-rule="evenodd" fill="#749F40" d="M22.953,16.799h83.703c7.83,0,14.24,6.396,14.24,14.24v14.253
		H8.713V31.039C8.713,23.195,15.111,16.799,22.953,16.799z"/>
	<path fill-rule="evenodd" clip-rule="evenodd" fill="#9BC33C" d="M22.955,16.797h62.531c7.833,0,14.244,6.402,14.244,14.242v14.253
		H8.716V31.039C8.716,23.195,15.109,16.797,22.955,16.797z"/>
</g>
<path fill-rule="evenodd" clip-rule="evenodd" fill="#749F40" d="M57.89,0.482h21.762c3.209,0,5.835,2.627,5.835,5.84v10.475H52.05
	V6.322C52.05,3.106,54.674,0.482,57.89,0.482z"/>
<path fill-rule="evenodd" clip-rule="evenodd" fill="#87BD40" d="M57.891,0.482h14.066c3.209,0,5.838,2.624,5.838,5.84v10.475
	H52.053V6.322C52.053,3.104,54.674,0.482,57.891,0.482z"/>
<rect x="71.061" y="45.292" fill-rule="evenodd" clip-rule="evenodd" fill="#875F25" width="42.498" height="9.29"/>
</svg>
