<?xml version="1.0" encoding="utf-8"?>
<!-- Generator: Adobe Illustrator 14.0.0, SVG Export Plug-In . SVG Version: 6.00 Build 43363)  -->
<!DOCTYPE svg PUBLIC "-//W3C//DTD SVG 1.1//EN" "http://www.w3.org/Graphics/SVG/1.1/DTD/svg11.dtd">
<svg version="1.1" id="Layer_1" xmlns="http://www.w3.org/2000/svg" xmlns:xlink="http://www.w3.org/1999/xlink" x="0px" y="0px"
	 width="700px" height="645px" viewBox="0 0 700 645" enable-background="new 0 0 700 645" xml:space="preserve">
<g>
	<path fill-rule="evenodd" clip-rule="evenodd" fill="#688E3D" d="M673.742,299.979h0.002c7.965,0,14.477-6.513,14.477-14.478
		V173.555h-28.955v111.947C659.266,293.467,665.777,299.979,673.742,299.979z"/>
	<path fill-rule="evenodd" clip-rule="evenodd" fill="#749F40" d="M519.38,510.098h0.003c6.926,0,12.588-5.663,12.588-12.588
		v-97.345H506.79v97.345C506.79,504.435,512.455,510.098,519.38,510.098z"/>
	<path fill-rule="evenodd" clip-rule="evenodd" fill="#7EAE41" d="M500.354,380.897L500.354,380.897c3.54,0,6.437,2.896,6.437,6.437
		v166.234c0,3.538-2.896,6.435-6.437,6.435l0,0c-3.54,0-6.437-2.896-6.437-6.435V387.334
		C493.917,383.794,496.813,380.897,500.354,380.897z"/>
	<path fill-rule="evenodd" clip-rule="evenodd" fill="#875F25" d="M305.085,523.956h99.976v99.849
		c0,11.592-9.486,21.078-21.078,21.078h-57.82c-11.591,0-21.078-9.484-21.078-21.078V523.956z"/>
	<path fill-rule="evenodd" clip-rule="evenodd" fill="#AE782B" d="M305.085,523.956h75.238v99.849
		c0,11.592-9.485,21.078-21.079,21.078h-33.081c-11.591,0-21.078-9.484-21.078-21.078V523.956z"/>
	<path fill-rule="evenodd" clip-rule="evenodd" fill="#875F25" d="M328.6,341.239H498.65v169.84
		c0,19.718-16.135,35.854-35.852,35.854h-98.348c-19.717,0-35.852-16.136-35.852-35.854V341.239z"/>
	<path fill-rule="evenodd" clip-rule="evenodd" fill="#B9802B" d="M328.6,341.239h127.975v169.84
		c0,19.718-16.135,35.854-35.854,35.854h-56.269c-19.717,0-35.852-16.136-35.852-35.854V341.239z"/>
	<path fill-rule="evenodd" clip-rule="evenodd" fill="#875F25" d="M235.01,391.289h170.051v169.839
		c0,19.718-16.135,35.854-35.853,35.854h-98.347c-19.717,0-35.852-16.135-35.852-35.854V391.289z"/>
	<path fill-rule="evenodd" clip-rule="evenodd" fill="#B9802B" d="M235.01,391.289h127.975v169.839
		c0,19.718-16.135,35.854-35.854,35.854h-56.269c-19.717,0-35.852-16.135-35.852-35.854V391.289z"/>
	<path fill-rule="evenodd" clip-rule="evenodd" fill="#875F25" d="M27.753,145.889h644.381v189.912
		c0,66.606-94.494,121.101-161.097,121.101H148.851c-66.605,0-121.097-54.494-121.097-121.101V145.889z"/>
	<path fill-rule="evenodd" clip-rule="evenodd" fill="#F2B866" d="M26.964,145.622h524.432v189.912
		c0,66.607-54.492,121.104-121.097,121.104H148.063c-66.604,0-121.1-54.497-121.1-121.104V145.622z"/>
	<path fill-rule="evenodd" clip-rule="evenodd" fill="#B9802B" d="M191.213,145.622h360.183v189.912
		c0,66.607-54.492,121.104-121.097,121.104H312.31c-66.605,0-121.097-54.497-121.097-121.104V145.622z"/>
	<path fill-rule="evenodd" clip-rule="evenodd" fill="#875F25" d="M27.753,145.889h524.431v44.923c0-3.183-2.604-5.786-5.786-5.786
		H27.753V145.889z"/>
	<path fill-rule="evenodd" clip-rule="evenodd" fill="#6A983F" d="M429.539,39.009h198.438c11.87,0,21.586,9.697,21.586,21.586
		v21.607H407.953V60.595C407.953,48.706,417.65,39.009,429.539,39.009z"/>
	<path fill-rule="evenodd" clip-rule="evenodd" fill="#84B941" d="M429.541,39.011h116.356c11.869,0,61.586,9.695,61.586,21.583
		v21.607h-199.53V60.595C407.953,48.706,417.65,39.011,429.541,39.011z"/>
	<path fill-rule="evenodd" clip-rule="evenodd" fill="#B5D334" d="M30.599,82.202h638.689c16.687,0,30.361,13.682,30.361,30.363
		v30.394v19.692v48.186c0,6.043-4.935,10.98-10.974,10.98h-0.004c-6.047,0-10.979-4.937-10.979-10.98v-4.966v-13.109
		c0-6.039-4.937-10.975-10.973-10.975h-0.005c-6.042,0-10.979,4.937-10.979,10.975v13.109v27.99c0,6.043-4.937,10.974-10.978,10.974
		h-0.002c-6.045,0-10.979-4.931-10.979-10.974v-27.99v-32.24c0-4.86-3.19-9-7.58-10.439h-80.509l0,0
		c-5.647,0-10.269,4.62-10.269,10.267v18.783v0.396h-0.013c-0.207,2.952-2.679,5.298-5.683,5.298l0,0
		c-3.003,0-5.475-2.347-5.681-5.298h-0.014v-0.396v-17.947c0-6.105-4.996-11.103-11.104-11.103l0,0
		c-6.11,0-11.104,4.998-11.104,11.103v18.343v10.545c0,6.106-4.995,11.103-11.105,11.103l0,0c-6.107,0-11.106-4.997-11.106-11.103
		v-10.545v-18.343c0-6.105-4.994-11.103-11.102-11.103l0,0c-6.11,0-11.105,4.998-11.105,11.103v13.131v10.673
		c0,3.463-2.829,6.291-6.292,6.291h-0.003c-3.462,0-6.291-2.827-6.291-6.291v-10.673v-7.31c0-3.464-2.829-6.292-6.293-6.292h-0.002
		c-3.462,0-6.291,2.829-6.291,6.292v7.31v46.194v9.416v9.419c0,6.114-4.992,11.102-11.103,11.102h-0.004
		c-6.109,0-11.104-4.987-11.104-11.102v-9.419v-9.416v-46.194v-18.481c0-3.464-2.83-6.293-6.291-6.293H293.333H94.883
		c-5.459,0-9.922,4.46-9.922,9.925v29.146v25.304c0,5.464-4.461,9.923-9.927,9.923h-0.002c-5.46,0-9.925-4.459-9.925-9.923v-25.304
		v-11.849c0-5.457-4.461-9.922-9.923-9.922h-0.004c-5.459,0-9.92,4.465-9.92,9.922v11.849v4.492c0,5.464-4.458,9.925-9.927,9.925
		h-0.002c-5.461,0-9.922-4.46-9.922-9.925v-2.745v-16.043v-7.516c0-3.461-2.829-6.291-6.293-6.291h-0.002
		c-3.461,0-6.29,2.83-6.29,6.291v7.516v2.845c0,3.464-2.827,6.292-6.294,6.292H6.528c-3.461,0-6.291-2.829-6.291-6.292v-27.62
		v-19.692v-30.394C0.237,95.879,13.905,82.202,30.599,82.202z"/>
	<path fill-rule="evenodd" clip-rule="evenodd" fill="#7DAB41" d="M30.599,82.202h638.689c16.687,0,30.363,13.682,30.363,30.362
		H0.237C0.237,95.879,13.905,82.202,30.599,82.202z"/>
	<path fill-rule="evenodd" clip-rule="evenodd" fill="#9BC33C" d="M30.599,82.202h582.935c16.687,0,30.361,13.682,30.361,30.363
		H0.237C0.237,95.879,13.905,82.202,30.599,82.202z"/>
	<path fill-rule="evenodd" clip-rule="evenodd" fill="#6DCEEF" d="M254.012,110.644h205.501c8.345,0,15.176-6.384,15.176-14.213
		V82.202H238.838V96.43C238.838,104.253,245.654,110.644,254.012,110.644z"/>
	<path fill-rule="evenodd" clip-rule="evenodd" fill="#43BFEE" d="M254.012,110.644h205.501c7.314,0,13.465-4.904,14.874-11.385
		H239.142C240.548,105.737,246.688,110.644,254.012,110.644z"/>
	<path fill-rule="evenodd" clip-rule="evenodd" fill="#6A983F" d="M224.998,55.262h32.234c8.23,0,14.969,6.725,14.969,14.969v42.334
		H210.03V70.231C210.03,61.987,216.751,55.262,224.998,55.262z"/>
	<path fill-rule="evenodd" clip-rule="evenodd" fill="#84B941" d="M224.996,55.26h12.246c8.23,0,14.969,6.727,14.969,14.971v42.334
		H210.03V70.231C210.03,61.987,216.751,55.26,224.996,55.26z"/>
	<path fill-rule="evenodd" clip-rule="evenodd" fill="#43BFEE" d="M272.201,100.411h22.301v147.147
		c0,3.513-5.018,6.394-11.146,6.394h-0.008c-6.129,0-11.146-2.878-11.146-6.394V100.411z"/>
	<path fill-rule="evenodd" clip-rule="evenodd" fill="#749F40" d="M249.231,240.99h126.878c11.869,0,21.586,9.696,21.586,21.586
		v21.605H227.646v-21.605C227.646,250.687,237.343,240.99,249.231,240.99z"/>
	<path fill-rule="evenodd" clip-rule="evenodd" fill="#9BC33C" d="M249.231,240.988h94.79c11.873,0,21.592,9.706,21.592,21.588
		v21.605H227.646v-21.605C227.646,250.689,237.341,240.988,249.231,240.988z"/>
	<path fill-rule="evenodd" clip-rule="evenodd" fill="#AA742A" d="M227.646,284.182H397.7v56.227
		c0,19.72-16.133,35.854-35.853,35.854H263.5c-19.719,0-35.854-16.135-35.854-35.854V284.182z"/>
	<path fill-rule="evenodd" clip-rule="evenodd" fill="#DC9C42" d="M227.646,284.182h127.975v56.227
		c0,19.72-16.132,35.854-35.852,35.854H263.5c-19.719,0-35.854-16.135-35.854-35.854V284.182z"/>
	<path fill-rule="evenodd" clip-rule="evenodd" fill="#749F40" d="M84.577,295.496h156.878c11.868,0,21.585,9.696,21.585,21.586
		v21.607H62.991v-21.607C62.991,305.192,72.688,295.496,84.577,295.496z"/>
	<path fill-rule="evenodd" clip-rule="evenodd" fill="#C9DA2B" d="M84.577,295.496h107.03c11.874,0,21.592,9.699,21.592,21.586
		v21.607H62.994v-21.607C62.994,305.195,72.686,295.496,84.577,295.496z"/>
	<path fill-rule="evenodd" clip-rule="evenodd" fill="#AA742A" d="M62.994,338.689h200.051v169.84
		c0,19.717-16.138,35.852-35.853,35.852H98.846c-19.717,0-35.852-16.133-35.852-35.852V338.689z"/>
	<path fill-rule="evenodd" clip-rule="evenodd" fill="#DC9C42" d="M62.994,338.689h157.973v169.84
		c0,19.717-16.133,35.852-35.853,35.852H98.846c-19.717,0-35.852-16.133-35.852-35.852V338.689z"/>
	<rect x="62.994" y="338.689" fill-rule="evenodd" clip-rule="evenodd" fill="#7F5321" width="200.051" height="13.101"/>
	<path fill-rule="evenodd" clip-rule="evenodd" fill="#749F40" d="M90.729,255.291h40.273c5.941,0,10.8,4.856,10.8,10.807v30.565
		h-61.88v-30.565C79.921,260.147,84.775,255.291,90.729,255.291z"/>
	<path fill-rule="evenodd" clip-rule="evenodd" fill="#87BD40" d="M90.729,255.291h26.033c5.943,0,10.803,4.854,10.803,10.807
		v30.565H79.924v-30.565C79.924,260.145,84.778,255.291,90.729,255.291z"/>
	<path fill-rule="evenodd" clip-rule="evenodd" fill="#43BFEE" d="M227.646,295.496v135.998h-16.995V406.24
		c0-4.669-3.826-8.499-8.499-8.499h-0.002c-4.672,0-8.496,3.827-8.496,8.499v25.254h-51.85V295.496v-18.64h85.842V295.496z"/>
	<path fill-rule="evenodd" clip-rule="evenodd" fill="#43BFEE" d="M144.329,451.618h-58.91V427.95
		c0-9.989,8.164-18.148,18.142-18.148h40.769V451.618z"/>
	<path fill-rule="evenodd" clip-rule="evenodd" fill="#749F40" d="M105.149,420.741h88.475c5.471,0,9.949,4.467,9.949,9.947v9.958
		H95.203v-9.958C95.203,425.208,99.67,420.741,105.149,420.741z"/>
	<path fill-rule="evenodd" clip-rule="evenodd" fill="#7EAE41" d="M105.149,420.739h39.082c5.471,0,39.951,4.474,39.951,9.949v9.955
		H95.203v-9.955C95.203,425.211,99.67,420.739,105.149,420.739z"/>
	<path fill-rule="evenodd" clip-rule="evenodd" fill="#AA742A" d="M95.203,440.646h108.371v25.914
		c0,9.089-7.433,16.521-16.522,16.521h-75.327c-9.089,0-16.522-7.433-16.522-16.521V440.646z"/>
	<path fill-rule="evenodd" clip-rule="evenodd" fill="#C6872B" d="M95.203,440.646h88.979v25.912
		c0,9.088-7.434,16.523-16.523,16.523h-55.932c-9.089,0-16.524-7.436-16.524-16.523V440.646z"/>
	<path fill-rule="evenodd" clip-rule="evenodd" fill="#749F40" d="M369.204,400.636h91.449c8.555,0,15.559,6.987,15.559,15.558
		v15.571H353.646v-15.571C353.646,407.623,360.635,400.636,369.204,400.636z"/>
	<path fill-rule="evenodd" clip-rule="evenodd" fill="#7EAE41" d="M369.204,400.633h68.321c8.558,0,15.562,6.995,15.562,15.561
		v15.571h-99.441v-15.571C353.646,407.625,360.635,400.633,369.204,400.633z"/>
	<path fill-rule="evenodd" clip-rule="evenodd" fill="#AA742A" d="M353.646,431.765h122.567v40.527
		c0,14.214-11.625,25.841-25.841,25.841h-70.884c-14.214,0-25.843-11.627-25.843-25.841V431.765z"/>
	<path fill-rule="evenodd" clip-rule="evenodd" fill="#F2B866" d="M353.646,431.765h92.239v40.525
		c0,14.213-11.627,25.843-25.841,25.843h-40.556c-14.214,0-25.843-11.63-25.843-25.843V431.765z"/>
	<path fill-rule="evenodd" clip-rule="evenodd" fill="#DC9C42" d="M384.18,431.765h61.706v40.527
		c0,14.211-11.627,25.841-25.841,25.841h-10.024c-14.211,0-25.841-11.63-25.841-25.841V431.765z"/>
	<path fill-rule="evenodd" clip-rule="evenodd" fill="#6D481C" d="M450.375,546.934h-45.313v45.256c0,5.254,4.3,9.554,9.554,9.554
		h26.207c5.253,0,9.553-4.298,9.553-9.554V546.934z"/>
	<path fill-rule="evenodd" clip-rule="evenodd" fill="#875F25" d="M450.375,546.934h-34.1v45.256c0,5.254,4.297,9.554,9.553,9.554
		h14.994c5.253,0,9.553-4.298,9.553-9.554V546.934z"/>
	<path fill-rule="evenodd" clip-rule="evenodd" fill="#593A14" d="M636.679,257.891h2.907c8.553,0,15.549,6.994,15.549,15.544
		v15.553h-34.002v-15.553C621.133,264.885,628.129,257.891,636.679,257.891z"/>
	<rect x="621.131" y="277.353" fill-rule="evenodd" clip-rule="evenodd" fill="#67C6E5" width="34.002" height="11.635"/>
	<path fill-rule="evenodd" clip-rule="evenodd" fill="#43BFEE" d="M641.597,277.353h13.538v180.213c0,3.712-3.048,6.769-6.767,6.769
		h-0.005c-3.716,0-6.767-3.045-6.767-6.769V277.353z"/>
	<rect x="407.953" y="67.556" fill-rule="evenodd" clip-rule="evenodd" fill="#6A983F" width="199.53" height="14.646"/>
	<rect x="263.045" y="442.34" fill-rule="evenodd" clip-rule="evenodd" fill="#B9802B" width="90.602" height="26.302"/>
	<path fill-rule="evenodd" clip-rule="evenodd" fill="#7F5321" d="M416.267,358.886h3.897c11.484,0,20.875,9.393,20.875,20.874
		v20.873h-45.646V379.76C395.394,368.278,404.784,358.886,416.267,358.886z"/>
	<path fill-rule="evenodd" clip-rule="evenodd" fill="#593A14" d="M416.865,371.711h2.7c7.957,0,14.461,6.507,14.461,14.461v14.461
		h-31.622v-14.461C402.404,378.218,408.909,371.711,416.865,371.711z"/>
	<path fill-rule="evenodd" clip-rule="evenodd" fill="#AA742A" d="M119.443,385.683h2.25c6.635,0,12.062,5.425,12.062,12.059v12.061
		h-26.371v-12.061C107.384,391.107,112.809,385.683,119.443,385.683z"/>
	<path fill-rule="evenodd" clip-rule="evenodd" fill="#593A14" d="M122.062,390.101h1.842c5.419,0,9.851,4.432,9.851,9.848v9.854
		h-21.541v-9.854C112.214,394.532,116.646,390.101,122.062,390.101z"/>
	<path fill-rule="evenodd" clip-rule="evenodd" fill="#875F25" d="M284.257,455.492V442.34v-7.2
		c0-22.133,18.106-40.239,40.239-40.239h11.044h12.944h8.153c5.367,0,9.762-4.391,9.762-9.762v-9.765h-17.915H335.54h-72.495v66.966
		v13.152v49.85h10.605c5.836,0,10.607-4.771,10.607-10.605V455.492z"/>
	<path fill-rule="evenodd" clip-rule="evenodd" fill="#AA742A" d="M387.912,371.16h60.83v-20.114
		c0-7.053-5.771-12.823-12.823-12.823h-35.185c-7.053,0-12.822,5.771-12.822,12.823V371.16z"/>
	<path fill-rule="evenodd" clip-rule="evenodd" fill="#DC9C42" d="M387.912,371.16h45.792v-20.112
		c0-7.053-5.77-12.825-12.825-12.825h-20.142c-7.056,0-12.825,5.772-12.825,12.825V371.16z"/>
	<rect x="227.648" y="284.184" fill-rule="evenodd" clip-rule="evenodd" fill="#7F5321" width="170.052" height="13.101"/>
	<rect x="353.648" y="431.768" fill-rule="evenodd" clip-rule="evenodd" fill="#AA742A" width="119.734" height="10.453"/>
	<path fill-rule="evenodd" clip-rule="evenodd" fill="#AA742A" d="M497.202,307.904h106.332v142.078
		c0,8.019-46.565,14.587-54.586,14.587h-37.159c-8.021,0-14.587-6.563-14.587-14.587V307.904z"/>
	<path fill-rule="evenodd" clip-rule="evenodd" fill="#DC9C42" d="M497.202,307.904h42.025v142.078
		c0,8.019-6.563,14.587-14.587,14.587h-12.852c-8.021,0-14.587-6.563-14.587-14.587V307.904z"/>
	<path fill-rule="evenodd" clip-rule="evenodd" fill="#B9802B" d="M476.29,307.904h41.928v77.517c0,5.07-4.147,9.218-9.219,9.218
		h-23.49c-5.071,0-9.219-4.147-9.219-9.218V307.904z"/>
	<path fill-rule="evenodd" clip-rule="evenodd" fill="#F2B866" d="M476.29,307.904h28.799v77.517c0,5.07-4.146,9.218-9.216,9.218
		h-10.367c-5.068,0-9.216-4.147-9.216-9.218V307.904z"/>
	<path fill-rule="evenodd" clip-rule="evenodd" fill="#7F5321" d="M597.699,307.904h32.022v102.95c0,3.873-3.169,7.042-7.042,7.042
		h-17.938c-3.872,0-7.042-3.167-7.042-7.042V307.904z"/>
	<path fill-rule="evenodd" clip-rule="evenodd" fill="#B9802B" d="M597.699,307.904h18.413v102.95c0,3.873-3.167,7.042-7.04,7.042
		h-4.331c-3.872,0-7.042-3.167-7.042-7.042V307.904z"/>
	<path fill-rule="evenodd" clip-rule="evenodd" fill="#749F40" d="M481.472,272.959h142.656c9.605,0,17.464,7.844,17.464,17.462
		v17.483H464.01v-17.483C464.01,280.803,471.854,272.959,481.472,272.959z"/>
	<path fill-rule="evenodd" clip-rule="evenodd" fill="#C9DA2B" d="M481.475,272.957h116.691c9.605,0,17.47,7.851,17.47,17.464
		v17.483H464.01v-17.483C464.01,280.805,471.852,272.957,481.475,272.957z"/>
	<rect x="476.29" y="307.901" fill-rule="evenodd" clip-rule="evenodd" fill="#7F5321" width="153.432" height="7.84"/>
	<path fill-rule="evenodd" clip-rule="evenodd" fill="#FDEB03" d="M444.69,43.025v7.372c0,4.056-3.316,7.373-7.373,7.373l0,0
		c-4.056,0-7.372-3.316-7.372-7.373v-7.372l1.846,3.115l1.839,3.108l1.842-3.108l1.846-3.115l1.847,3.115l1.839,3.108l1.841-3.108
		L444.69,43.025z"/>
	<path fill-rule="evenodd" clip-rule="evenodd" fill="#FDEB03" d="M163.016,93.039v7.372c0,4.056-3.316,7.373-7.373,7.373l0,0
		c-4.056,0-7.372-3.316-7.372-7.373v-7.372l1.846,3.115l1.839,3.108l1.842-3.108l1.846-3.115l1.847,3.115l1.839,3.108l1.841-3.108
		L163.016,93.039z"/>
	<path fill-rule="evenodd" clip-rule="evenodd" fill="#FDEB03" d="M605.071,93.039v7.372c0,4.056-3.316,7.373-7.373,7.373l0,0
		c-4.056,0-7.372-3.316-7.372-7.373v-7.372l1.846,3.115l1.839,3.108l1.842-3.108l1.846-3.115l1.847,3.115l1.839,3.108l1.841-3.108
		L605.071,93.039z"/>
	<path fill-rule="evenodd" clip-rule="evenodd" fill="#FDEB03" d="M454.574,404.445v7.372c0,4.057-3.316,7.373-7.372,7.373l0,0
		c-4.059,0-7.373-3.316-7.373-7.373v-7.372l1.847,3.115l1.837,3.108l1.844-3.108l1.846-3.115l1.844,3.115l1.839,3.108l1.844-3.108
		L454.574,404.445z"/>
	<path fill-rule="evenodd" clip-rule="evenodd" fill="#FDEB03" d="M389.146,404.445v7.372c0,4.057-3.316,7.373-7.373,7.373l0,0
		c-4.058,0-7.372-3.316-7.372-7.373v-7.372l1.846,3.115l1.837,3.108l1.844-3.108l1.846-3.115l1.847,3.115l1.837,3.108l1.843-3.108
		L389.146,404.445z"/>
	<path fill-rule="evenodd" clip-rule="evenodd" fill="#146E38" d="M459.543,39.009c0-5.363,4.351-9.712,9.714-9.712
		c4.182,0,7.748,2.646,9.116,6.354c1.543-7.281,8.012-12.747,15.752-12.747c0.586,0,1.165,0.036,1.734,0.096
		c1.812-3.657,5.585-6.175,9.942-6.175c3.377,0,6.4,1.511,8.435,3.891c1.095-1.178,2.295-2.257,3.579-3.223l-0.008-0.554
		c0-9.154,7.419-16.576,16.574-16.576c6.175,0,11.563,3.377,14.415,8.385c0.681-0.152,1.385-0.23,2.111-0.23
		c5.353,0,9.694,4.34,9.694,9.692c0,1.263-0.244,2.472-0.682,3.578c0.282-0.016,40.563-0.02,40.85-0.02
		c9.521,0,17.238,7.716,17.238,17.239v0.002H459.543z"/>
	<path fill-rule="evenodd" clip-rule="evenodd" fill="#138040" d="M459.543,39.009c0-5.363,4.349-9.712,9.714-9.712
		c4.184,0,7.746,2.646,9.113,6.355c1.546-7.285,8.015-12.746,15.753-12.746c0.59,0,1.167,0.031,1.736,0.094
		c1.814-3.657,5.585-6.173,9.942-6.173c3.377,0,6.398,1.509,8.435,3.889c1.097-1.175,2.295-2.257,3.582-3.223l-0.011-0.552
		c0-4.776,2.021-9.082,5.251-12.105c1.216,1.139,2.26,2.456,3.089,3.913c0.684-0.152,1.385-0.23,2.111-0.23
		c5.351,0,9.692,4.34,9.692,9.692c0,1.265-0.239,2.469-0.678,3.575c0.277-0.013,0.562-0.02,0.848-0.02
		c9.52,0,57.238,7.721,57.238,17.239v0.004H459.543z"/>
	<path fill-rule="evenodd" clip-rule="evenodd" fill="#146E38" d="M63.8,105.153c1.989,0,3.864,0.458,5.54,1.27
		c0.331-4.428,2.733-8.273,6.242-10.576c-1.339-2.136-2.112-4.662-2.112-7.366c0-7.674,6.22-13.893,13.894-13.893
		c0.597,0,1.183,0.039,1.761,0.109c1.158-4.076,4.908-7.059,9.355-7.059c5.375,0,9.728,4.354,9.728,9.726
		c0,1.884-0.539,3.645-1.465,5.135c0.333-0.024,0.665-0.036,1.003-0.036c7.473,0,13.567,5.899,13.878,13.299
		c1.455-0.517,3.016-0.798,4.646-0.798c7.674,0,13.893,6.221,13.893,13.894c0,1.285-0.174,2.525-0.498,3.705H52.244
		C54.253,108.19,58.671,105.153,63.8,105.153z"/>
	<path fill-rule="evenodd" clip-rule="evenodd" fill="#138040" d="M63.8,105.153c1.989,0,3.864,0.458,5.54,1.27
		c0.331-4.428,2.733-8.273,6.242-10.576c-1.339-2.136-2.112-4.662-2.112-7.366c0-7.674,6.22-13.893,13.894-13.893
		c0.336,0,0.668,0.012,1,0.036c0.252,0.869,0.391,1.787,0.391,2.74c0,1.884-0.537,3.645-1.464,5.135
		c0.333-0.024,0.667-0.036,1.003-0.036c7.473,0,13.567,5.899,13.878,13.299c1.452-0.517,3.017-0.798,4.646-0.798
		c7.674,0,13.894,6.221,13.894,13.894c0,1.285-0.174,2.525-0.501,3.705H52.244C54.253,108.19,58.671,105.153,63.8,105.153z"/>
	<path fill-rule="evenodd" clip-rule="evenodd" fill="#FFFFFF" d="M463.08,90.124v0.002c0,1.501-1.313,2.73-2.919,2.73h-42.122
		c-1.604,0-2.914-1.229-2.914-2.73v-0.002c0-1.503,1.31-2.733,2.914-2.733h42.122C461.767,87.391,463.08,88.621,463.08,90.124z"/>
	<path fill-rule="evenodd" clip-rule="evenodd" fill="#FFFFFF" d="M403.691,90.124L403.691,90.124c0,1.504-1.316,2.732-2.918,2.732
		h-12.428c-1.603,0-2.916-1.229-2.916-2.732l0,0c0-1.503,1.312-2.733,2.916-2.733h12.428
		C402.378,87.391,403.691,88.621,403.691,90.124z"/>
	<path fill-rule="evenodd" clip-rule="evenodd" fill="#AA742A" d="M316.129,212.071h2.7c7.96,0,14.463,6.505,14.463,14.461v14.461
		h-31.624v-14.461C301.668,218.576,308.173,212.071,316.129,212.071z"/>
	<path fill-rule="evenodd" clip-rule="evenodd" fill="#593A14" d="M320.248,212.14c7.296,0.719,13.044,6.914,13.044,14.392v14.461
		h-26.088v-14.461C307.204,219.054,312.951,212.859,320.248,212.14z"/>
	<path fill-rule="evenodd" clip-rule="evenodd" fill="#593A14" d="M50.796,240.575h1.748c5.138,0,9.334,4.196,9.334,9.332v9.339
		H41.461v-9.339C41.461,244.771,45.66,240.575,50.796,240.575z"/>
	<path fill-rule="evenodd" clip-rule="evenodd" fill="#593A14" d="M432.169,291.8h1.747c5.136,0,9.335,4.199,9.335,9.335v9.339
		h-20.417v-9.339C422.834,295.999,427.033,291.8,432.169,291.8z"/>
	<path fill-rule="evenodd" clip-rule="evenodd" fill="#593A14" d="M297.887,533.047h2.38c6.999,0,12.72,5.721,12.72,12.723v12.724
		h-27.822V545.77C285.165,538.768,290.885,533.047,297.887,533.047z"/>
	<path fill-rule="evenodd" clip-rule="evenodd" fill="#AA742A" d="M278.907,558.493h43.296v14.319c0,5.021-4.105,9.126-9.127,9.126
		h-25.042c-5.021,0-9.127-4.105-9.127-9.126V558.493z"/>
	<path fill-rule="evenodd" clip-rule="evenodd" fill="#DC9C42" d="M278.907,558.493h32.594v14.316c0,5.02-4.107,9.127-9.127,9.127
		h-14.338c-5.021,0-9.129-4.107-9.129-9.127V558.493z"/>
	<rect x="0.237" y="112.565" fill-rule="evenodd" clip-rule="evenodd" fill="#DCE11F" width="199.487" height="30.394"/>
	<rect x="141.802" y="276.856" fill-rule="evenodd" clip-rule="evenodd" fill="#6DCEEF" width="85.844" height="19.807"/>
	<path fill-rule="evenodd" clip-rule="evenodd" fill="#0BAED1" d="M215.455,320.052h0.002c1.602,0,2.914,1.314,2.914,2.919v42.123
		c0,1.604-1.312,2.914-2.914,2.914h-0.002c-1.605,0-2.916-1.31-2.916-2.914v-42.123C212.539,321.366,213.85,320.052,215.455,320.052
		z"/>
	<path fill-rule="evenodd" clip-rule="evenodd" fill="#0BAED1" d="M201.189,288.696h0.002c1.602,0,2.914,1.314,2.914,2.919v42.123
		c0,1.604-1.312,2.914-2.914,2.914h-0.002c-1.604,0-2.916-1.311-2.916-2.914v-42.123
		C198.273,290.011,199.585,288.696,201.189,288.696z"/>
	<path fill-rule="evenodd" clip-rule="evenodd" fill="#DCE11F" d="M242.696,112.565c-16.266,0-122.218,0-142.208,0l0,0
		c0,16.786,13.607,30.394,30.394,30.394h81.421C229.088,142.959,242.696,129.352,242.696,112.565L242.696,112.565z"/>
</g>
</svg>
